HIERARCHY
ROOT root_translation_joint
{
	OFFSET	0	0	0
	CHANNELS 6 Xposition Yposition Zposition Zrotation Xrotation Yrotation
	JOINT torso_x_joint
	{
		OFFSET	0	0.010284	0.327936
		CHANNELS 3  Zrotation Xrotation Yrotation
		JOINT head_x_joint
		{
			OFFSET	0	-0.020052	0.50232
			CHANNELS 3  Zrotation Xrotation Yrotation
			JOINT upper_left_specula_joint
			{
				OFFSET	-0.0873828	0.0381	-0.153156
				CHANNELS 3  Zrotation Xrotation Yrotation
				JOINT upper_left_arm_x_joint
				{
					OFFSET	-0.169296	0	0
					CHANNELS 3  Zrotation Xrotation Yrotation
					JOINT lower_left_arm_joint
					{
						OFFSET	-0.001464	-0.00114	-0.34296
						CHANNELS 3  Zrotation Xrotation Yrotation
						JOINT left_hand_x_joint
						{
							OFFSET	-0.001728	-0.004992	-0.325056
							CHANNELS 3  Zrotation Xrotation Yrotation
							JOINT left_hand_endeffector_joint
							{
								OFFSET	-0.009816	0.007404	-0.21684
								CHANNELS 3  Zrotation Xrotation Yrotation
								End Site
								{
									OFFSET	-2.25979e-05	1.70451e-05	-0.000499198
								}
							}
							JOINT left_hand_cp_1_joint
							{
								OFFSET	0.01757	0.0606	-0.22569
								CHANNELS 3  Zrotation Xrotation Yrotation
								End Site
								{
									OFFSET	3.74876e-05	0.000129297	-0.000481536
								}
							}
							JOINT left_hand_cp_2_joint
							{
								OFFSET	0.01757	-0.06468	-0.22569
								CHANNELS 3  Zrotation Xrotation Yrotation
								End Site
								{
									OFFSET	3.73144e-05	-0.000137365	-0.000479311
								}
							}
							JOINT left_hand_cp_3_joint
							{
								OFFSET	0.01757	-0.06468	-0.02705
								CHANNELS 3  Zrotation Xrotation Yrotation
								End Site
								{
									OFFSET	0.000121547	-0.000447448	-0.000187128
								}
							}
							JOINT left_hand_cp_4_joint
							{
								OFFSET	0.01757	0.0606	-0.02705
								CHANNELS 3  Zrotation Xrotation Yrotation
								End Site
								{
									OFFSET	0.000127969	0.000441372	-0.000197015
								}
							}
						}
					}
				}
			}
			JOINT upper_right_specula_joint
			{
				OFFSET	0.0873852	0.0381	-0.153312
				CHANNELS 3  Zrotation Xrotation Yrotation
				JOINT upper_right_arm_x_joint
				{
					OFFSET	0.16926	0.003768	-0.0003
					CHANNELS 3  Zrotation Xrotation Yrotation
					JOINT lower_right_arm_joint
					{
						OFFSET	-0.005592	-0.007404	-0.342828
						CHANNELS 3  Zrotation Xrotation Yrotation
						JOINT right_hand_x_joint
						{
							OFFSET	-0.004728	-0.003084	-0.325056
							CHANNELS 3  Zrotation Xrotation Yrotation
							JOINT right_hand_endeffector_joint
							{
								OFFSET	-0.000348	0.010884	-0.21684
								CHANNELS 3  Zrotation Xrotation Yrotation
								End Site
								{
									OFFSET	-8.01425e-07	2.50653e-05	-0.000499371
								}
							}
							JOINT right_hand_cp_1_joint
							{
								OFFSET	-0.01229	0.05553	-0.01712
								CHANNELS 3  Zrotation Xrotation Yrotation
								End Site
								{
									OFFSET	-0.000103461	0.000467467	-0.000144121
								}
							}
							JOINT right_hand_cp_2_joint
							{
								OFFSET	-0.01229	-0.06975	-0.01712
								CHANNELS 3  Zrotation Xrotation Yrotation
								End Site
								{
									OFFSET	-8.43349e-05	-0.00047863	-0.000117479
								}
							}
							JOINT right_hand_cp_3_joint
							{
								OFFSET	-0.01229	-0.06975	-0.21577
								CHANNELS 3  Zrotation Xrotation Yrotation
								End Site
								{
									OFFSET	-2.7059e-05	-0.000153569	-0.000475062
								}
							}
							JOINT right_hand_cp_4_joint
							{
								OFFSET	-0.01229	0.05553	-0.21577
								CHANNELS 3  Zrotation Xrotation Yrotation
								End Site
								{
									OFFSET	-2.75388e-05	0.000124429	-0.000483486
								}
							}
						}
					}
				}
			}
		}
	}
	JOINT upper_left_leg_x_joint
	{
		OFFSET	-0.106044	-0.001956	-0.144312
		CHANNELS 3  Zrotation Xrotation Yrotation
		JOINT lower_left_leg_joint
		{
			OFFSET	-0.025332	-0.01956	-0.477768
			CHANNELS 3  Zrotation Xrotation Yrotation
			JOINT left_foot_x_joint
			{
				OFFSET	-0.008988	0.036996	-0.474504
				CHANNELS 3  Zrotation Xrotation Yrotation
				JOINT left_foot_cp_1_joint
				{
					OFFSET	0.08027	0.27372	-0.12195
					CHANNELS 3  Zrotation Xrotation Yrotation
					End Site
					{
						OFFSET	0.000129375	0.000441168	-0.000196553
					}
				}
				JOINT left_foot_cp_2_joint
				{
					OFFSET	-0.09166	0.27372	-0.12195
					CHANNELS 3  Zrotation Xrotation Yrotation
					End Site
					{
						OFFSET	-0.000146252	0.000436747	-0.000194583
					}
				}
				JOINT left_foot_cp_3_joint
				{
					OFFSET	-0.09166	-0.07769	-0.12195
					CHANNELS 3  Zrotation Xrotation Yrotation
					End Site
					{
						OFFSET	-0.0002677	-0.0002269	-0.000356164
					}
				}
				JOINT left_foot_cp_4_joint
				{
					OFFSET	0.08027	-0.07769	-0.12195
					CHANNELS 3  Zrotation Xrotation Yrotation
					End Site
					{
						OFFSET	0.000242682	-0.000234882	-0.000368695
					}
				}
			}
		}
	}
	JOINT upper_right_leg_x_joint
	{
		OFFSET	0.106044	-0.001956	-0.1443
		CHANNELS 3  Zrotation Xrotation Yrotation
		JOINT lower_right_leg_joint
		{
			OFFSET	0.025332	-0.01956	-0.47778
			CHANNELS 3  Zrotation Xrotation Yrotation
			JOINT right_foot_x_joint
			{
				OFFSET	0.008988	0.036996	-0.474504
				CHANNELS 3  Zrotation Xrotation Yrotation
				JOINT right_foot_cp_1_joint
				{
					OFFSET	0.10495	0.2684	-0.12195
					CHANNELS 3  Zrotation Xrotation Yrotation
					End Site
					{
						OFFSET	0.00016769	0.000428851	-0.000194852
					}
				}
				JOINT right_foot_cp_2_joint
				{
					OFFSET	-0.06698	0.2684	-0.12195
					CHANNELS 3  Zrotation Xrotation Yrotation
					End Site
					{
						OFFSET	-0.000110777	0.000443902	-0.000201691
					}
				}
				JOINT right_foot_cp_3_joint
				{
					OFFSET	-0.06698	-0.08301	-0.12195
					CHANNELS 3  Zrotation Xrotation Yrotation
					End Site
					{
						OFFSET	-0.00020671	-0.00025618	-0.000376355
					}
				}
				JOINT right_foot_cp_4_joint
				{
					OFFSET	0.10495	-0.08301	-0.12195
					CHANNELS 3  Zrotation Xrotation Yrotation
					End Site
					{
						OFFSET	0.000289847	-0.000229254	-0.000336796
					}
				}
			}
		}
	}
}
MOTION
Frames:	16
Frame Time: 1
0	0.9	0	-90	-3.50824e-15	-90	-0	0	-0	-0	0	-0	-0	0	-0	-0	0	-0	-0	0	-0	-0	0	-0	-0	0	-0	-0	0	-0	-0	0	-0	-0	0	-0	-0	0	-0	-0	0	-0	-0	0	-0	-0	0	-0	-0	0	-0	-0	0	-0	-0	0	-0	-0	0	-0	-0	0	-0	-0	0	-0	-37.4281	59.0888	37.1242	-0	-67.1186	-0	0.811015	3.13048	-13.7588	-0	0	-0	-0	0	-0	-0	0	-0	-0	0	-0	18.0096	68.5423	-18.6005	-0	-78.7064	-0	-0.73791	7.14833	5.05032	-0	0	-0	-0	0	-0	-0	0	-0	-0	0	-0
0.0962103	0.87317	0.00486837	-94.0242	4.55979	-82.4101	-0	0	-0	-0	0	-0	-0	0	-0	-0	0	-0	-0	0	-0	-0	0	-0	-0	0	-0	-0	0	-0	-0	0	-0	-0	0	-0	-0	0	-0	-0	0	-0	-0	0	-0	-0	0	-0	-0	0	-0	-0	0	-0	-0	0	-0	-0	0	-0	-0	0	-0	-0	0	-0	-38.743	65.6569	35.3385	-0	-81.0778	-0	3.74973	10.0647	-15.7826	-0	0	-0	-0	0	-0	-0	0	-0	-0	0	-0	45.8326	73.5258	-47.6287	-180	-87.899	-180	-1.20981	11.6824	4.215	-0	0	-0	-0	0	-0	-0	0	-0	-0	0	-0
0.0962103	0.87317	0.00486837	-94.0242	4.55979	-82.4101	-0	0	-0	-0	0	-0	-0	0	-0	-0	0	-0	-0	0	-0	-0	0	-0	-0	0	-0	-0	0	-0	-0	0	-0	-0	0	-0	-0	0	-0	-0	0	-0	-0	0	-0	-0	0	-0	-0	0	-0	-0	0	-0	-0	0	-0	-0	0	-0	-0	0	-0	-0	0	-0	-38.743	65.6569	35.3385	-0	-81.0778	-0	3.74973	10.0647	-15.7826	-0	0	-0	-0	0	-0	-0	0	-0	-0	0	-0	45.8326	73.5258	-47.6287	-180	-87.899	-180	-1.20981	11.6824	4.215	-0	0	-0	-0	0	-0	-0	0	-0	-0	0	-0
0.192421	0.846339	0.00973674	-98.6551	8.53394	-74.452	-0	0	-0	-0	0	-0	-0	0	-0	-0	0	-0	-0	0	-0	-0	0	-0	-0	0	-0	-0	0	-0	-0	0	-0	-0	0	-0	-0	0	-0	-0	0	-0	-0	0	-0	-0	0	-0	-0	0	-0	-0	0	-0	-0	0	-0	-0	0	-0	-0	0	-0	-0	0	-0	-22.9989	71.1171	19.6559	-180	-88.8693	-180	11.8601	22.2963	-22.3577	-0	0	-0	-0	0	-0	-0	0	-0	-0	0	-0	71.4036	72.0661	-75.4756	-180	-77.6283	-180	-2.72419	23.157	4.89567	-0	0	-0	-0	0	-0	-0	0	-0	-0	0	-0
0.192421	0.846339	0.00973674	-98.6551	8.53394	-74.452	-0	0	-0	-0	0	-0	-0	0	-0	-0	0	-0	-0	0	-0	-0	0	-0	-0	0	-0	-0	0	-0	-0	0	-0	-0	0	-0	-0	0	-0	-0	0	-0	-0	0	-0	-0	0	-0	-0	0	-0	-0	0	-0	-0	0	-0	-0	0	-0	-0	0	-0	-0	0	-0	-22.9989	71.1171	19.6559	-180	-88.8693	-180	11.8601	22.2963	-22.3577	-0	0	-0	-0	0	-0	-0	0	-0	-0	0	-0	71.4036	72.0661	-75.4756	-180	-77.6283	-180	-2.72419	23.157	4.89567	-0	0	-0	-0	0	-0	-0	0	-0	-0	0	-0
0.288631	0.819509	0.0146051	-103.855	11.8154	-66.1029	-0	0	-0	-0	0	-0	-0	0	-0	-0	0	-0	-0	0	-0	-0	0	-0	-0	0	-0	-0	0	-0	-0	0	-0	-0	0	-0	-0	0	-0	-0	0	-0	-0	0	-0	-0	0	-0	-0	0	-0	-0	0	-0	-0	0	-0	-0	0	-0	-0	0	-0	-0	0	-0	0.472035	71.9002	-5.38516	-180	-81.6766	-180	21.681	33.1918	-28.8911	-0	0	-0	-0	0	-0	-0	0	-0	-0	0	-0	85.8986	66.6298	-92.7881	-180	-69.3731	-180	-4.63158	32.973	6.82755	-0	0	-0	-0	0	-0	-0	0	-0	-0	0	-0
0.288631	0.819509	0.0146051	-103.855	11.8154	-66.1029	-0	0	-0	-0	0	-0	-0	0	-0	-0	0	-0	-0	0	-0	-0	0	-0	-0	0	-0	-0	0	-0	-0	0	-0	-0	0	-0	-0	0	-0	-0	0	-0	-0	0	-0	-0	0	-0	-0	0	-0	-0	0	-0	-0	0	-0	-0	0	-0	-0	0	-0	-0	0	-0	0.472035	71.9002	-5.38516	-180	-81.6766	-180	21.681	33.1918	-28.8911	-0	0	-0	-0	0	-0	-0	0	-0	-0	0	-0	85.8986	66.6298	-92.7881	-180	-69.3731	-180	-4.63158	32.973	6.82755	-0	0	-0	-0	0	-0	-0	0	-0	-0	0	-0
0.292389	0.81846	0.0147953	-104.068	11.9281	-65.7689	-0	0	-0	-0	0	-0	-0	0	-0	-0.362709	-9.39391	-3.79249	-0	9.53856	-0	-17.599	27.3184	33.7682	-0	0	-0	-0	0	-0	-0	0	-0	-0	0	-0	-0	0	-0	-0	0	-0	-0	0	-0	-0	0	-0	-0	0	-0	-0	0	-0	-0	0	-0	-0	0	-0	-0	0	-0	-0	0	-0	0.496256	71.8129	-5.43854	-180	-81.3341	-180	21.6721	33.1784	-28.8862	-0	0	-0	-0	0	-0	-0	0	-0	-0	0	-0	87.3804	66.3497	-94.0865	-180	-69.1601	-180	-4.65528	33.1387	6.84047	-0	0	-0	-0	0	-0	-0	0	-0	-0	0	-0
0.296148	0.817412	0.0149855	-104.283	12.0395	-65.4344	-0	0	-0	-0	0	-0	-0	0	-0	-0.29134	-13.8245	-3.647	-0	17.3672	-0	-30.6126	31.9376	46.9524	-0	0	-0	-0	0	-0	-0	0	-0	-0	0	-0	-0	0	-0	-0	0	-0	-0	0	-0	-0	0	-0	-0	0	-0	-0	0	-0	-0	0	-0	-0	0	-0	-0	0	-0	-0	0	-0	1.88499	71.5286	-7.15181	-180	-80.9941	-180	21.6298	33.1142	-28.8631	-0	0	-0	-0	0	-0	-0	0	-0	-0	0	-0	88.0832	66.0535	-94.7881	-180	-68.8994	-180	-4.66913	33.2353	6.84806	-0	0	-0	-0	0	-0	-0	0	-0	-0	0	-0
0.299906	0.816364	0.0151757	-104.498	12.1498	-65.0994	-0	0	-0	-0	0	-0	-0	0	-0	0.13601	-16.373	-2.79662	-0	23.8938	-0	-40.4014	33.2769	55.719	-0	0	-0	-0	0	-0	-0	0	-0	-0	0	-0	-0	0	-0	-0	0	-0	-0	0	-0	-0	0	-0	-0	0	-0	-0	0	-0	-0	0	-0	-0	0	-0	-0	0	-0	-0	0	-0	2.57402	71.5862	-8.00819	-180	-80.6965	-180	21.6536	33.1503	-28.8761	-0	0	-0	-0	0	-0	-0	0	-0	-0	0	-0	88.6468	65.7541	-95.3813	-180	-68.6254	-180	-4.68032	33.3132	6.8542	-0	0	-0	-0	0	-0	-0	0	-0	-0	0	-0
0.303665	0.815316	0.0153659	-104.714	12.2588	-64.7637	-0	0	-0	-0	0	-0	-0	0	-0	0.888376	-18.8109	-1.60214	-0	30.6358	-0	-49.3786	33.3546	63.143	-0	0	-0	-0	0	-0	-0	0	-0	-0	0	-0	-0	0	-0	-0	0	-0	-0	0	-0	-0	0	-0	-0	0	-0	-0	0	-0	-0	0	-0	-0	0	-0	-0	0	-0	-0	0	-0	3.23415	71.6433	-8.82971	-180	-80.4057	-180	21.6721	33.1783	-28.8862	-0	0	-0	-0	0	-0	-0	0	-0	-0	0	-0	89.1258	65.4503	-95.9098	-180	-68.3429	-180	-4.68934	33.3759	6.85916	-0	0	-0	-0	0	-0	-0	0	-0	-0	0	-0
0.307423	0.814268	0.015556	-104.931	12.3665	-64.4275	-0	0	-0	-0	0	-0	-0	0	-0	2.14205	-20.527	0.281888	-0	37.1508	-0	-56.4119	32.7043	68.6659	-0	0	-0	-0	0	-0	-0	0	-0	-0	0	-0	-0	0	-0	-0	0	-0	-0	0	-0	-0	0	-0	-0	0	-0	-0	0	-0	-0	0	-0	-0	0	-0	-0	0	-0	-0	0	-0	3.89617	71.6937	-9.65292	-180	-80.1201	-180	21.684	33.1964	-28.8927	-0	0	-0	-0	0	-0	-0	0	-0	-0	0	-0	89.6034	65.1429	-96.4355	-180	-68.062	-180	-4.69661	33.4263	6.86315	-0	0	-0	-0	0	-0	-0	0	-0	-0	0	-0
0.311182	0.81322	0.0157462	-105.149	12.473	-64.0908	-0	0	-0	-0	0	-0	-0	0	-0	3.31004	-22.8868	1.50522	-0	42.9094	-0	-62.2559	31.8305	72.8941	-0	0	-0	-0	0	-0	-0	0	-0	-0	0	-0	-0	0	-0	-0	0	-0	-0	0	-0	-0	0	-0	-0	0	-0	-0	0	-0	-0	0	-0	-0	0	-0	-0	0	-0	-0	0	-0	4.56111	71.736	-10.4776	-180	-79.8383	-180	21.6899	33.2053	-28.8959	-0	0	-0	-0	0	-0	-0	0	-0	-0	0	-0	90.0646	64.8315	-96.9474	-180	-67.7815	-180	-4.70178	33.4621	6.86601	-0	0	-0	-0	0	-0	-0	0	-0	-0	0	-0
0.31494	0.812172	0.0159364	-105.367	12.5783	-63.7535	-0	0	-0	-0	0	-0	-0	0	-0	4.69072	-23.5075	3.25791	-0	48.6794	-0	-66.5582	30.9539	75.8847	-0	0	-0	-0	0	-0	-0	0	-0	-0	0	-0	-0	0	-0	-0	0	-0	-0	0	-0	-0	0	-0	-0	0	-0	-0	0	-0	-0	0	-0	-0	0	-0	-0	0	-0	-0	0	-0	5.22867	71.7688	-11.3015	-180	-79.5595	-180	21.6905	33.2063	-28.8963	-0	0	-0	-0	0	-0	-0	0	-0	-0	0	-0	90.5172	64.5162	-97.451	-180	-67.503	-180	-4.70481	33.4832	6.86768	-0	0	-0	-0	0	-0	-0	0	-0	-0	0	-0
0.318699	0.811123	0.0161266	-105.586	12.6823	-63.4156	-0	0	-0	-0	0	-0	-0	0	-0	6.16145	-24.0019	5.0123	-0	54.6637	-0	-70.3903	30.0765	78.3982	-0	0	-0	-0	0	-0	-0	0	-0	-0	0	-0	-0	0	-0	-0	0	-0	-0	0	-0	-0	0	-0	-0	0	-0	-0	0	-0	-0	0	-0	-0	0	-0	-0	0	-0	-0	0	-0	5.89885	71.7912	-12.1225	-180	-79.2833	-180	21.6872	33.2012	-28.8945	-0	0	-0	-0	0	-0	-0	0	-0	-0	0	-0	90.9603	64.196	-97.9457	-180	-67.2269	-180	-4.7058	33.49	6.86822	-0	0	-0	-0	0	-0	-0	0	-0	-0	0	-0
0.322457	0.810075	0.0163168	-105.806	12.785	-63.0772	-0	0	-0	-0	0	-0	-0	0	-0	7.50605	-22.9883	6.93662	-0	59.0234	-0	-71.9106	29.4877	79.5799	-0	0	-0	-0	0	-0	-0	0	-0	-0	0	-0	-0	0	-0	-0	0	-0	-0	0	-0	-0	0	-0	-0	0	-0	-0	0	-0	-0	0	-0	-0	0	-0	-0	0	-0	-0	0	-0	6.56594	71.802	-12.9311	-180	-79.0092	-180	21.681	33.1918	-28.8911	-0	0	-0	-0	0	-0	-0	0	-0	-0	0	-0	91.3941	63.8716	-98.4311	-180	-66.9538	-180	-4.70484	33.4833	6.86769	-0	0	-0	-0	0	-0	-0	0	-0	-0	0	-0
